# xmcd CD database file
#
# Track frame offsets:
#	150
#	25238
#	51789
#	85832
#	116020
#	146533
#	175521
#
# Disc length: 2772 seconds
#
# Revision: 0
# Processed by: cddbd v1.5.1PL0 Copyright (c) Steve Scherf et al.
# Submitted via: CDex 1.51
#
DISCID=520ad207
DTITLE=Andrew Hill - Dance With Death
DYEAR=1967
DGENRE=Jazz
TTITLE0=Yellow Violet
TTITLE1=Partitions
TTITLE2=Fish 'N Rice
TTITLE3=Dance With Death
TTITLE4=Love Nocturne
TTITLE5=Black Sabbath
TTITLE6=Dance With Death (alt tk)
EXTD=YEAR: 1967
EXTT0=
EXTT1=
EXTT2=
EXTT3=
EXTT4=
EXTT5=
EXTT6=
PLAYORDER=
